# xmcd
#
# Track frame offsets:
#  150
#  13305
#  31113
#  44170
#  52727
#  72392
#  89068
#  102519
#  119503
#  132200
#  149597
#  167889
#  181234
#  204792
#  230336
#  249838
#  262376
#  283147
#  308743
#  322074
#  342764
#
# Disc length: 4759 seconds
#
# Revision: 0
# Processed by: cddbd v1.5.1PL2 Copyright (c) Steve Scherf et al.
# Submitted via: Collectorz.com_Music_Collector 6.9
#
DISCID=42129515
DTITLE=Dirty Blues Band - Dirty Blues Band and Stone Dirt
DYEAR=2005
DGENRE=Blues
TTITLE0=Don't Start Me Talkin'
TTITLE1=What Is Soul Baby
TTITLE2=Hound Dog
TTITLE3=New Orleans Woman
TTITLE4=I'll Do Anything Babe
TTITLE5=Checkin Up On My Baby
TTITLE6=Shake It Babe
TTITLE7=Worry Worry Blues
TTITLE8=Born Under A Bad Sign
TTITLE9=Spoonful
TTITLE10=Chicken Shack
TTITLE11=Bring It On Home
TTITLE12=It's My Own Fault
TTITLE13=I Can't Quit You Baby
TTITLE14=Tell Me
TTITLE15=She's The One
TTITLE16=My Baby
TTITLE17=Sittin Down Wonderin
TTITLE18=Six Sides
TTITLE19=You've Got To Love Her With A Feeling
TTITLE20=Gone Too Long
EXTD=
EXTT0=
EXTT1=
EXTT2=
EXTT3=
EXTT4=
EXTT5=
EXTT6=
EXTT7=
EXTT8=
EXTT9=
EXTT10=
EXTT11=
EXTT12=
EXTT13=
EXTT14=
EXTT15=
EXTT16=
EXTT17=
EXTT18=
EXTT19=
EXTT20=
PLAYORDER=
